<?xml version="1.0" standalone="no"?>
<!DOCTYPE svg PUBLIC "-//W3C//DTD SVG 20010904//EN"
 "http://www.w3.org/TR/2001/REC-SVG-20010904/DTD/svg10.dtd">
<svg version="1.0" xmlns="http://www.w3.org/2000/svg"
 width="1024.000000pt" height="1024.000000pt" viewBox="0 0 1024.000000 1024.000000"
 preserveAspectRatio="xMidYMid meet">

<g transform="translate(0.000000,1024.000000) scale(0.100000,-0.100000)"
fill="#000000" stroke="none">
<path d="M655 5818 c202 -615 498 -1505 505 -1517 12 -22 58 -23 70 -1 5 10
98 281 205 602 107 320 198 590 201 598 3 8 49 -111 103 -265 53 -154 112
-309 131 -345 68 -126 216 -246 330 -265 l35 -6 154 470 c85 259 152 473 150
475 -34 31 -207 77 -241 64 -8 -3 -58 -144 -113 -317 -55 -171 -102 -311 -105
-311 -3 0 -65 181 -138 403 -73 221 -145 435 -159 475 l-26 72 -112 0 -112 0
-31 -87 c-17 -49 -88 -259 -158 -468 -70 -209 -130 -384 -134 -388 -4 -4 -64
174 -134 395 -70 222 -137 435 -150 473 l-23 70 -146 3 -146 3 44 -133z"/>
<path d="M2116 5934 c-76 -17 -189 -57 -223 -79 l-22 -15 40 -117 c21 -65 41
-124 44 -131 4 -10 11 -9 32 6 210 148 490 132 704 -40 34 -28 64 -46 68 -41
4 4 43 50 87 102 l79 94 -47 41 c-87 76 -201 135 -334 172 -85 24 -337 28
-428 8z"/>
<path d="M5456 5821 c-89 -26 -115 -45 -79 -58 54 -19 53 -9 53 -374 0 -294
-2 -340 -16 -353 -8 -9 -22 -16 -30 -16 -8 0 -14 -7 -14 -15 0 -13 21 -15 125
-15 95 0 125 3 125 13 0 7 -13 18 -30 24 l-30 11 0 401 c0 220 -3 402 -7 404
-5 3 -48 -7 -97 -22z"/>
<path d="M6103 5817 c-40 -12 -73 -27 -73 -34 0 -7 13 -19 29 -27 16 -9 31
-23 35 -31 10 -27 7 -641 -4 -669 -5 -14 -20 -28 -35 -32 -14 -3 -25 -12 -25
-20 0 -11 26 -14 130 -14 134 0 154 7 101 34 -16 9 -31 23 -35 31 -3 9 -6 95
-6 190 l0 174 30 21 c61 43 140 39 165 -10 22 -43 22 -372 -1 -394 -8 -9 -22
-16 -30 -16 -8 0 -14 -7 -14 -15 0 -13 21 -15 125 -15 104 0 125 2 125 15 0 8
-6 15 -13 15 -8 0 -21 8 -30 18 -12 14 -16 52 -19 207 -4 204 -8 224 -61 274
-51 47 -160 41 -232 -14 l-45 -35 0 185 0 185 -22 -1 c-13 -1 -56 -11 -95 -22z"/>
<path d="M9441 5817 c-77 -23 -98 -40 -62 -52 45 -14 51 -31 51 -140 l0 -104
-27 15 c-74 38 -218 3 -277 -67 -53 -63 -70 -115 -70 -214 0 -109 26 -178 86
-229 76 -66 176 -70 253 -10 l45 34 0 -33 c0 -19 2 -36 5 -39 3 -2 45 5 95 16
95 21 113 38 63 57 -15 6 -31 16 -35 22 -4 7 -8 182 -8 390 l0 377 -22 -1
c-13 0 -56 -10 -97 -22z m-62 -332 c45 -23 52 -54 49 -230 l-3 -159 -35 -24
c-69 -47 -151 -9 -187 87 -24 62 -24 181 0 243 33 86 105 120 176 83z"/>
<path d="M6946 5771 c-68 -23 -152 -78 -183 -119 -157 -213 -104 -522 108
-630 121 -62 275 -66 417 -10 l57 23 5 128 c5 120 7 130 29 148 13 10 29 19
37 19 8 0 14 7 14 15 0 13 -22 15 -140 15 -77 0 -143 0 -147 1 -4 0 -9 -4 -11
-10 -2 -6 12 -17 32 -25 50 -21 57 -41 54 -163 -3 -105 -4 -108 -29 -120 -82
-39 -199 -20 -263 44 -124 122 -141 405 -35 560 85 123 289 122 368 -3 17 -25
33 -59 36 -75 5 -20 13 -29 27 -29 20 0 20 4 13 98 -4 53 -12 100 -19 105 -65
42 -277 59 -370 28z"/>
<path d="M3290 5762 c0 -11 13 -23 34 -30 41 -15 27 17 181 -434 105 -309 108
-318 134 -318 25 0 29 8 106 240 44 132 83 240 87 240 3 0 41 -102 82 -227 42
-126 80 -234 85 -241 4 -8 18 -12 31 -10 20 3 34 37 135 348 61 190 118 355
125 366 7 12 29 29 47 38 18 9 33 22 33 31 0 13 -19 15 -115 15 -108 0 -115
-1 -115 -20 0 -13 7 -20 20 -20 35 0 60 -35 53 -72 -6 -35 -141 -459 -147
-466 -2 -2 -41 109 -87 247 -82 246 -83 250 -65 270 11 12 30 21 43 21 16 0
23 6 23 20 0 20 -5 20 -152 18 -161 -3 -192 -14 -124 -42 38 -16 54 -42 82
-128 l18 -58 -59 -175 c-33 -96 -62 -171 -66 -167 -15 16 -160 473 -157 494 2
16 13 26 36 33 21 6 32 15 32 27 0 17 -12 18 -150 18 -138 0 -150 -1 -150 -18z"/>
<path d="M5791 5661 c-16 -36 -82 -106 -121 -126 -44 -23 -39 -45 10 -45 l40
0 0 -212 c0 -193 2 -216 20 -245 31 -52 91 -72 160 -53 52 14 106 60 97 84 -6
16 -9 16 -29 2 -12 -9 -36 -16 -53 -16 -68 1 -75 23 -75 249 l0 191 70 0 c68
0 70 1 70 25 0 24 -2 25 -70 25 l-70 0 0 75 c0 67 -2 75 -19 75 -11 0 -23 -11
-30 -29z"/>
<path d="M4455 5532 c-48 -23 -108 -87 -131 -139 -24 -59 -29 -169 -11 -234
19 -63 72 -131 126 -158 92 -48 207 -32 272 36 78 81 80 141 3 73 -118 -104
-273 -26 -291 146 l-6 54 178 0 178 0 -7 47 c-9 70 -43 130 -89 161 -53 36
-161 42 -222 14z m134 -37 c31 -16 51 -59 51 -111 l0 -34 -110 0 c-123 0 -123
0 -95 67 35 83 91 111 154 78z"/>
<path d="M4959 5534 c-89 -27 -140 -121 -87 -158 46 -32 88 -14 88 36 0 72 58
115 117 86 37 -18 53 -52 53 -119 l0 -55 -72 -23 c-137 -44 -208 -94 -224
-157 -10 -40 6 -95 35 -125 63 -62 158 -59 232 8 27 24 39 30 39 20 0 -9 11
-28 23 -43 20 -23 32 -27 70 -27 50 1 107 33 107 59 0 12 -7 14 -28 9 -18 -4
-33 -1 -39 7 -7 8 -12 89 -15 198 -3 163 -5 189 -23 220 -42 72 -161 100 -276
64z m141 -456 c-79 -72 -174 7 -128 107 13 29 57 59 114 79 l39 13 3 -86 c3
-85 3 -86 -28 -113z"/>
<path d="M7590 5544 c-8 -1 -41 -6 -72 -9 -65 -7 -76 -25 -29 -45 16 -6 32
-21 35 -33 3 -12 6 -98 6 -190 0 -186 7 -216 59 -260 64 -53 159 -44 231 23
l40 37 0 -42 c0 -23 2 -44 5 -47 3 -2 45 5 95 16 88 20 114 38 73 53 -53 18
-53 19 -53 271 l0 234 -42 -6 c-24 -3 -67 -8 -95 -12 -35 -4 -53 -11 -53 -20
0 -8 5 -14 10 -14 6 0 22 -11 35 -25 25 -24 25 -27 25 -188 0 -172 -1 -178
-50 -211 -29 -19 -98 -21 -121 -3 -35 27 -39 53 -39 266 l0 211 -22 -1 c-13
-1 -30 -3 -38 -5z"/>
<path d="M8228 5536 c-59 -21 -88 -45 -104 -82 -22 -52 4 -94 57 -94 36 0 49
18 49 65 0 67 59 102 118 71 34 -18 52 -62 52 -131 l0 -41 -89 -28 c-157 -48
-211 -98 -211 -192 0 -40 5 -51 38 -84 62 -62 155 -62 227 1 l34 30 15 -29
c18 -35 33 -42 91 -42 32 0 51 7 74 26 35 29 32 49 -6 39 -49 -12 -53 2 -53
199 0 218 -10 250 -82 285 -52 25 -151 28 -210 7z m172 -344 c0 -79 -2 -91
-22 -110 -28 -25 -69 -36 -104 -28 -50 13 -65 103 -25 150 15 17 126 76 144
76 4 0 7 -40 7 -88z"/>
<path d="M8711 5527 c-75 -22 -98 -41 -64 -54 52 -18 53 -23 53 -225 0 -175
-1 -189 -20 -208 -11 -11 -27 -20 -35 -20 -8 0 -15 -7 -15 -15 0 -13 22 -15
140 -15 118 0 140 2 140 15 0 9 -9 15 -22 15 -57 1 -68 32 -68 202 0 154 6
177 52 211 26 20 26 20 61 -2 43 -26 52 -26 77 -1 44 44 11 120 -53 120 -40 0
-69 -20 -108 -73 l-29 -40 0 56 c0 67 2 66 -109 34z"/>
<path d="M1636 5274 c-4 -11 -36 -104 -72 -207 l-63 -188 16 -47 c57 -170 194
-339 350 -431 37 -22 111 -54 163 -72 83 -28 112 -33 228 -37 257 -9 444 49
630 195 l72 57 0 327 0 326 -229 2 -229 2 -38 -113 c-20 -62 -39 -119 -42
-125 -3 -10 28 -13 137 -13 l141 0 0 -139 0 -140 -29 -21 c-58 -40 -161 -82
-243 -96 -237 -43 -451 47 -583 246 -53 79 -77 135 -150 344 -38 108 -54 143
-59 130z"/>
<path d="M4723 4655 c-70 -30 -96 -138 -50 -206 25 -38 77 -60 120 -52 32 6
77 46 77 68 0 23 -20 18 -46 -11 -19 -20 -32 -25 -61 -22 -108 9 -104 198 4
198 23 0 41 -8 57 -25 25 -27 46 -33 46 -12 0 29 -66 78 -103 77 -7 -1 -27 -7
-44 -15z"/>
<path d="M6063 4656 c-52 -23 -81 -100 -63 -166 24 -88 126 -120 192 -61 31
28 33 33 33 100 0 65 -2 73 -30 100 -36 36 -88 46 -132 27z m106 -45 c40 -40
34 -148 -9 -171 -21 -11 -60 -13 -85 -4 -22 9 -45 57 -45 94 0 35 23 86 42 93
30 12 79 6 97 -12z"/>
<path d="M6883 4655 c-61 -26 -87 -105 -59 -180 20 -52 53 -76 108 -77 45 0
86 24 99 60 12 31 -17 29 -43 -3 -19 -25 -57 -32 -93 -19 -44 17 -60 122 -24
168 28 36 89 37 117 1 19 -23 52 -35 52 -17 0 19 -35 55 -66 68 -41 17 -50 17
-91 -1z"/>
<path d="M8233 4655 c-85 -36 -98 -185 -22 -239 30 -20 102 -21 134 0 25 16
55 80 55 117 -1 46 -38 107 -74 122 -43 18 -52 18 -93 0z m102 -50 c20 -19 25
-34 25 -75 0 -63 -30 -100 -83 -100 -51 0 -82 38 -82 100 0 37 5 54 24 74 33
35 83 35 116 1z"/>
<path d="M8520 4653 c-38 -20 -53 -56 -37 -88 13 -26 24 -33 74 -46 55 -14 79
-40 63 -68 -15 -30 -94 -30 -110 -1 -12 22 -40 27 -40 7 0 -18 40 -53 69 -60
58 -14 121 23 121 70 0 38 -26 61 -86 79 -37 10 -55 22 -60 36 -15 49 65 69
106 26 14 -15 23 -19 31 -11 15 15 -29 62 -66 68 -19 4 -43 -1 -65 -12z"/>
<path d="M3450 4530 c0 -123 1 -130 20 -130 17 0 20 7 20 44 l0 43 51 6 c79
10 110 49 88 114 -14 44 -34 53 -113 53 l-66 0 0 -130z m134 84 c19 -18 21
-55 4 -72 -7 -7 -31 -12 -55 -12 l-43 0 0 50 0 50 39 0 c23 0 46 -7 55 -16z"/>
<path d="M3720 4530 c0 -109 2 -130 15 -130 11 0 15 12 15 50 l0 50 33 0 c30
0 37 -5 61 -50 19 -35 34 -50 47 -50 20 0 19 3 -9 51 l-29 51 23 23 c32 32 32
78 -1 110 -21 22 -33 25 -90 25 l-65 0 0 -130z m128 88 c7 -7 12 -24 12 -40 0
-33 -24 -48 -74 -48 l-36 0 0 50 0 50 43 0 c24 0 48 -5 55 -12z"/>
<path d="M3980 4530 l0 -130 85 0 c69 0 85 3 85 15 0 12 -14 15 -65 15 l-65 0
0 45 0 45 60 0 c47 0 60 3 60 15 0 12 -13 15 -60 15 l-60 0 0 40 0 40 65 0
c51 0 65 3 65 15 0 12 -16 15 -85 15 l-85 0 0 -130z"/>
<path d="M4234 4638 c3 -13 6 -71 6 -130 l0 -108 54 0 c30 0 66 4 79 9 65 25
92 103 62 179 -22 55 -55 72 -141 72 -64 0 -66 -1 -60 -22z m151 -33 c20 -19
25 -34 25 -75 0 -69 -29 -100 -95 -100 l-45 0 0 100 0 100 45 0 c35 0 52 -6
70 -25z"/>
<path d="M4530 4530 c0 -109 2 -130 15 -130 13 0 15 21 15 130 0 109 -2 130
-15 130 -13 0 -15 -21 -15 -130z"/>
<path d="M4940 4645 c0 -11 11 -15 40 -15 l40 0 0 -115 c0 -108 1 -115 20
-115 19 0 20 7 20 115 l0 115 40 0 c29 0 40 4 40 15 0 12 -18 15 -100 15 -82
0 -100 -3 -100 -15z"/>
<path d="M5470 4530 c0 -123 1 -130 20 -130 17 0 20 7 20 44 l0 43 51 6 c58 7
85 26 94 67 7 32 -15 84 -40 94 -9 3 -46 6 -81 6 l-64 0 0 -130z m138 88 c7
-7 12 -24 12 -38 0 -37 -18 -50 -67 -50 l-43 0 0 50 0 50 43 0 c24 0 48 -5 55
-12z"/>
<path d="M5740 4530 c0 -109 2 -130 15 -130 11 0 15 12 15 50 0 50 0 50 33 50
28 0 35 -6 60 -50 19 -34 35 -50 48 -50 19 0 19 3 -10 53 l-30 52 25 22 c30
27 32 71 3 107 -19 24 -27 26 -90 26 l-69 0 0 -130z m128 88 c7 -7 12 -24 12
-40 0 -33 -24 -48 -74 -48 l-36 0 0 50 0 50 43 0 c24 0 48 -5 55 -12z"/>
<path d="M6290 4645 c0 -11 11 -15 40 -15 l40 0 0 -115 c0 -108 1 -115 20
-115 19 0 20 7 20 115 l0 115 40 0 c29 0 40 4 40 15 0 12 -18 15 -100 15 -82
0 -100 -3 -100 -15z"/>
<path d="M6570 4530 l0 -130 85 0 c69 0 85 3 85 15 0 12 -14 15 -65 15 l-65 0
0 45 0 45 60 0 c47 0 60 3 60 15 0 12 -13 15 -60 15 l-60 0 0 40 0 39 62 3
c38 2 63 8 66 16 3 9 -18 12 -82 12 l-86 0 0 -130z"/>
<path d="M7102 4648 c3 -7 23 -14 46 -16 l42 -3 0 -115 c0 -95 3 -114 15 -114
12 0 15 19 15 115 l0 115 45 0 c33 0 45 4 45 15 0 12 -18 15 -106 15 -80 0
-105 -3 -102 -12z"/>
<path d="M7640 4530 c0 -109 2 -130 15 -130 11 0 15 12 15 45 0 45 0 45 34 45
43 0 85 16 102 38 20 26 17 76 -7 106 -19 24 -27 26 -90 26 l-69 0 0 -130z
m136 75 c15 -23 15 -27 0 -50 -14 -21 -25 -25 -61 -25 l-45 0 0 50 0 50 45 0
c36 0 47 -4 61 -25z"/>
<path d="M7900 4530 c0 -123 1 -130 20 -130 17 0 20 7 20 50 0 50 0 50 33 50
30 0 36 -5 57 -50 18 -38 29 -50 46 -50 22 0 22 0 -7 54 -24 44 -27 56 -16 63
24 14 39 53 32 84 -10 44 -39 59 -117 59 l-68 0 0 -130z m138 88 c17 -17 15
-54 -4 -72 -9 -9 -32 -16 -55 -16 l-39 0 0 50 0 50 43 0 c24 0 48 -5 55 -12z"/>
<path d="M8742 4533 c3 -111 6 -128 21 -131 14 -3 17 4 17 41 l0 44 52 5 c40
4 57 11 75 32 30 36 30 80 -2 111 -21 22 -33 25 -96 25 l-71 0 4 -127z m136
85 c7 -7 12 -24 12 -38 0 -37 -18 -50 -67 -50 l-43 0 0 50 0 50 43 0 c24 0 48
-5 55 -12z"/>
<path d="M9010 4530 l0 -130 85 0 c69 0 85 3 85 15 0 12 -14 15 -65 15 l-65 0
0 45 0 45 61 0 c81 0 77 24 -4 28 l-57 3 0 39 0 39 62 3 c38 2 63 8 66 16 3 9
-18 12 -82 12 l-86 0 0 -130z"/>
<path d="M9260 4530 c0 -123 1 -130 20 -130 17 0 20 7 20 50 0 49 1 50 29 50
25 0 34 -8 58 -50 17 -30 35 -50 46 -50 22 0 22 3 -9 56 l-27 45 22 23 c28 29
28 89 1 116 -16 16 -33 20 -90 20 l-70 0 0 -130z m145 66 c8 -24 6 -31 -14
-47 -13 -10 -38 -19 -57 -19 l-34 0 0 51 0 50 47 -3 c42 -3 49 -6 58 -32z"/>
<path d="M5211 4436 c-14 -17 -7 -36 14 -36 22 0 29 20 13 36 -13 13 -16 13
-27 0z"/>
<path d="M7371 4431 c-12 -21 -5 -31 21 -31 11 0 18 7 18 19 0 26 -27 34 -39
12z"/>
<path d="M9537 4444 c-16 -16 -7 -44 14 -44 15 0 20 5 17 22 -3 22 -19 33 -31
22z"/>
</g>
</svg>
